<mxfile host="app.diagrams.net" agent="Mozilla/5.0 (Windows NT 10.0; Win64; x64) AppleWebKit/537.36 (KHTML, like Gecko) Chrome/131.0.0.0 Safari/537.36" version="24.8.9">
  <diagram name="Page-1" id="2cc2dc42-3aac-f2a9-1cec-7a8b7cbee084">
    <mxGraphModel dx="2561" dy="652" grid="1" gridSize="10" guides="1" tooltips="1" connect="1" arrows="1" fold="1" page="1" pageScale="1" pageWidth="1100" pageHeight="850" background="#ffffff" math="0" shadow="0">
      <root>
        <mxCell id="0" />
        <mxCell id="1" parent="0" />
        <mxCell id="7026571954dc6520-1" value="" style="strokeWidth=1;shadow=0;dashed=0;align=center;html=1;shape=mxgraph.mockup.containers.browserWindow;rSize=0;strokeColor=#666666;mainText=,;recursiveResize=0;rounded=0;labelBackgroundColor=none;fontFamily=Verdana;fontSize=12" parent="1" vertex="1">
          <mxGeometry x="-30" y="5" width="1100" height="840" as="geometry" />
        </mxCell>
        <mxCell id="7026571954dc6520-2" value="Page 1" style="strokeWidth=1;shadow=0;dashed=0;align=center;html=1;shape=mxgraph.mockup.containers.anchor;fontSize=17;fontColor=#666666;align=left;" parent="7026571954dc6520-1" vertex="1">
          <mxGeometry x="60" y="12" width="110" height="26" as="geometry" />
        </mxCell>
        <mxCell id="7026571954dc6520-3" value="https://&lt;span style=&quot;color: rgb(17, 17, 17); font-family: gdsherpa, Helvetica, Arial, sans-serif; font-size: 16px; font-weight: 700; text-wrap-mode: wrap; background-color: rgb(245, 247, 248);&quot;&gt;univoice.world&lt;/span&gt;" style="strokeWidth=1;shadow=0;dashed=0;align=center;html=1;shape=mxgraph.mockup.containers.anchor;rSize=0;fontSize=17;fontColor=#666666;align=left;" parent="7026571954dc6520-1" vertex="1">
          <mxGeometry x="130" y="60" width="250" height="26" as="geometry" />
        </mxCell>
        <mxCell id="7026571954dc6520-4" value="&lt;font style=&quot;font-size: 11px;&quot;&gt;Mining&lt;/font&gt;" style="text;html=1;points=[];align=left;verticalAlign=top;spacingTop=-4;fontSize=30;fontFamily=Verdana;fillColor=#FF3333;" parent="7026571954dc6520-1" vertex="1">
          <mxGeometry x="35" y="120" width="45" height="40" as="geometry" />
        </mxCell>
        <mxCell id="7026571954dc6520-15" value="" style="verticalLabelPosition=bottom;shadow=0;dashed=0;align=center;html=1;verticalAlign=top;strokeWidth=1;shape=mxgraph.mockup.markup.line;strokeColor=#999999;rounded=0;labelBackgroundColor=none;fillColor=#ffffff;fontFamily=Verdana;fontSize=12;fontColor=#000000;" parent="7026571954dc6520-1" vertex="1">
          <mxGeometry x="10" y="160" width="1050" height="20" as="geometry" />
        </mxCell>
        <mxCell id="7026571954dc6520-21" value="" style="verticalLabelPosition=bottom;shadow=0;dashed=0;align=center;html=1;verticalAlign=top;strokeWidth=1;shape=mxgraph.mockup.markup.line;strokeColor=#999999;rounded=0;labelBackgroundColor=none;fillColor=#ffffff;fontFamily=Verdana;fontSize=12;fontColor=#000000;" parent="7026571954dc6520-1" vertex="1">
          <mxGeometry x="-10" y="710" width="1050" height="20" as="geometry" />
        </mxCell>
        <mxCell id="92GGv_9mYleQxzDiKBSX-1" value="&lt;font style=&quot;font-size: 11px;&quot;&gt;Pool&lt;/font&gt;" style="text;html=1;points=[];align=left;verticalAlign=top;spacingTop=-4;fontSize=30;fontFamily=Verdana" vertex="1" parent="7026571954dc6520-1">
          <mxGeometry x="120" y="120" width="45" height="40" as="geometry" />
        </mxCell>
        <mxCell id="92GGv_9mYleQxzDiKBSX-3" value="&lt;font style=&quot;font-size: 11px;&quot;&gt;Leaderborad&lt;/font&gt;" style="text;html=1;points=[];align=left;verticalAlign=top;spacingTop=-4;fontSize=30;fontFamily=Verdana" vertex="1" parent="7026571954dc6520-1">
          <mxGeometry x="170" y="120" width="45" height="40" as="geometry" />
        </mxCell>
        <mxCell id="92GGv_9mYleQxzDiKBSX-4" value="&lt;h2 style=&quot;box-sizing: border-box; font-weight: var(--font-weight-bold); margin: calc(var(--line-height) * 2) 0 var(--line-height); line-height: var(--line-height); font-size: 1rem; text-transform: uppercase; font-family: &amp;quot;JetBrains Mono&amp;quot;, monospace; text-align: start; background-color: rgb(255, 255, 255);&quot; id=&quot;toc-title&quot;&gt;Mining facility&lt;/h2&gt;&lt;ul style=&quot;box-sizing: border-box; padding: 0px 0px 0px 2ch; margin: 0 0 var(--line-height); list-style-type: square; font-family: &amp;quot;JetBrains Mono&amp;quot;, monospace; font-size: 16px; text-align: start; background-color: rgb(255, 255, 255);&quot; class=&quot;incremental&quot;&gt;&lt;li style=&quot;box-sizing: border-box; margin: 0px; padding: 0px;&quot;&gt;Total Miners:&amp;nbsp;22885&lt;/li&gt;&lt;li style=&quot;box-sizing: border-box; margin: 0px; padding: 0px;&quot;&gt;Blocks Mined:&amp;nbsp;20884&lt;/li&gt;&lt;li style=&quot;box-sizing: border-box; margin: 0px; padding: 0px;&quot;&gt;Time since last block:&amp;nbsp;393&amp;nbsp;secs&lt;/li&gt;&lt;li style=&quot;box-sizing: border-box; margin: 0px; padding: 0px;&quot;&gt;Current Block Cycles Burned:&amp;nbsp;322&amp;nbsp;TC&lt;/li&gt;&lt;li style=&quot;box-sizing: border-box; margin: 0px; padding: 0px;&quot;&gt;Current Block Active Miners:&amp;nbsp;411&lt;/li&gt;&lt;/ul&gt;" style="rounded=1;whiteSpace=wrap;html=1;" vertex="1" parent="7026571954dc6520-1">
          <mxGeometry x="35" y="200" width="975" height="320" as="geometry" />
        </mxCell>
        <mxCell id="92GGv_9mYleQxzDiKBSX-23" value="" style="dashed=0;outlineConnect=0;html=1;align=center;labelPosition=center;verticalLabelPosition=bottom;verticalAlign=top;shape=mxgraph.webicons.allvoices;fillColor=#807E7E;gradientColor=#1B1C1C" vertex="1" parent="7026571954dc6520-1">
          <mxGeometry x="620" y="740" width="50" height="50" as="geometry" />
        </mxCell>
        <mxCell id="92GGv_9mYleQxzDiKBSX-25" value="" style="dashed=0;outlineConnect=0;html=1;align=center;labelPosition=center;verticalLabelPosition=bottom;verticalAlign=top;shape=mxgraph.webicons.facebook;fillColor=#6294E4;gradientColor=#1A2665" vertex="1" parent="7026571954dc6520-1">
          <mxGeometry x="690" y="740" width="50" height="50" as="geometry" />
        </mxCell>
        <mxCell id="92GGv_9mYleQxzDiKBSX-26" value="" style="dashed=0;outlineConnect=0;html=1;align=center;labelPosition=center;verticalLabelPosition=bottom;verticalAlign=top;shape=mxgraph.webicons.google_plus;fillColor=#F24B46;gradientColor=#AD3832" vertex="1" parent="7026571954dc6520-1">
          <mxGeometry x="760" y="740" width="50" height="50" as="geometry" />
        </mxCell>
        <mxCell id="92GGv_9mYleQxzDiKBSX-27" value="" style="dashed=0;outlineConnect=0;html=1;align=center;labelPosition=center;verticalLabelPosition=bottom;verticalAlign=top;shape=mxgraph.webicons.twitter;fillColor=#49EAF7;gradientColor=#137BD0" vertex="1" parent="7026571954dc6520-1">
          <mxGeometry x="840" y="740" width="50" height="50" as="geometry" />
        </mxCell>
        <mxCell id="92GGv_9mYleQxzDiKBSX-28" value="" style="strokeWidth=1;shadow=0;dashed=0;align=center;html=1;shape=mxgraph.mockup.containers.browserWindow;rSize=0;strokeColor=#666666;mainText=,;recursiveResize=0;rounded=0;labelBackgroundColor=none;fontFamily=Verdana;fontSize=12;fillColor=default;" vertex="1" parent="1">
          <mxGeometry y="870" width="1100" height="840" as="geometry" />
        </mxCell>
        <mxCell id="92GGv_9mYleQxzDiKBSX-29" value="Page 1" style="strokeWidth=1;shadow=0;dashed=0;align=center;html=1;shape=mxgraph.mockup.containers.anchor;fontSize=17;fontColor=#666666;align=left;" vertex="1" parent="92GGv_9mYleQxzDiKBSX-28">
          <mxGeometry x="60" y="12" width="110" height="26" as="geometry" />
        </mxCell>
        <mxCell id="92GGv_9mYleQxzDiKBSX-30" value="https://&lt;span style=&quot;color: rgb(17, 17, 17); font-family: gdsherpa, Helvetica, Arial, sans-serif; font-size: 16px; font-weight: 700; text-wrap-mode: wrap; background-color: rgb(245, 247, 248);&quot;&gt;univoice.world&lt;/span&gt;" style="strokeWidth=1;shadow=0;dashed=0;align=center;html=1;shape=mxgraph.mockup.containers.anchor;rSize=0;fontSize=17;fontColor=#666666;align=left;" vertex="1" parent="92GGv_9mYleQxzDiKBSX-28">
          <mxGeometry x="130" y="60" width="250" height="26" as="geometry" />
        </mxCell>
        <mxCell id="92GGv_9mYleQxzDiKBSX-31" value="&lt;font style=&quot;font-size: 11px;&quot;&gt;Mining&lt;/font&gt;" style="text;html=1;points=[];align=left;verticalAlign=top;spacingTop=-4;fontSize=30;fontFamily=Verdana;fillColor=default;" vertex="1" parent="92GGv_9mYleQxzDiKBSX-28">
          <mxGeometry x="35" y="120" width="45" height="40" as="geometry" />
        </mxCell>
        <mxCell id="92GGv_9mYleQxzDiKBSX-32" value="" style="verticalLabelPosition=bottom;shadow=0;dashed=0;align=center;html=1;verticalAlign=top;strokeWidth=1;shape=mxgraph.mockup.markup.line;strokeColor=#999999;rounded=0;labelBackgroundColor=none;fillColor=#ffffff;fontFamily=Verdana;fontSize=12;fontColor=#000000;" vertex="1" parent="92GGv_9mYleQxzDiKBSX-28">
          <mxGeometry x="10" y="160" width="1050" height="20" as="geometry" />
        </mxCell>
        <mxCell id="92GGv_9mYleQxzDiKBSX-33" value="" style="verticalLabelPosition=bottom;shadow=0;dashed=0;align=center;html=1;verticalAlign=top;strokeWidth=1;shape=mxgraph.mockup.markup.line;strokeColor=#999999;rounded=0;labelBackgroundColor=none;fillColor=#ffffff;fontFamily=Verdana;fontSize=12;fontColor=#000000;" vertex="1" parent="92GGv_9mYleQxzDiKBSX-28">
          <mxGeometry x="-10" y="710" width="1050" height="20" as="geometry" />
        </mxCell>
        <mxCell id="92GGv_9mYleQxzDiKBSX-34" value="&lt;font style=&quot;font-size: 11px;&quot;&gt;Pool&lt;/font&gt;" style="text;html=1;points=[];align=left;verticalAlign=top;spacingTop=-4;fontSize=30;fontFamily=Verdana;fillColor=#FF3333;" vertex="1" parent="92GGv_9mYleQxzDiKBSX-28">
          <mxGeometry x="120" y="120" width="45" height="40" as="geometry" />
        </mxCell>
        <mxCell id="92GGv_9mYleQxzDiKBSX-36" value="&lt;font style=&quot;font-size: 11px;&quot;&gt;Leaderborad&lt;/font&gt;" style="text;html=1;points=[];align=left;verticalAlign=top;spacingTop=-4;fontSize=30;fontFamily=Verdana" vertex="1" parent="92GGv_9mYleQxzDiKBSX-28">
          <mxGeometry x="200" y="120" width="45" height="40" as="geometry" />
        </mxCell>
        <mxCell id="92GGv_9mYleQxzDiKBSX-37" value="&lt;h2 style=&quot;box-sizing: border-box; font-weight: var(--font-weight-bold); margin: calc(var(--line-height) * 2) 0 var(--line-height); line-height: var(--line-height); font-size: 1rem; text-transform: uppercase; font-family: &amp;quot;JetBrains Mono&amp;quot;, monospace; text-align: start; background-color: rgb(255, 255, 255);&quot; id=&quot;toc-title&quot;&gt;Mining facility&lt;/h2&gt;&lt;ul style=&quot;box-sizing: border-box; padding: 0px 0px 0px 2ch; margin: 0 0 var(--line-height); list-style-type: square; font-family: &amp;quot;JetBrains Mono&amp;quot;, monospace; font-size: 16px; text-align: start; background-color: rgb(255, 255, 255);&quot; class=&quot;incremental&quot;&gt;&lt;li style=&quot;box-sizing: border-box; margin: 0px; padding: 0px;&quot;&gt;Block mined by pool:13682&lt;/li&gt;&lt;li style=&quot;box-sizing: border-box; margin: 0px; padding: 0px;&quot;&gt;Current training roll:128672&lt;/li&gt;&lt;li style=&quot;box-sizing: border-box; margin: 0px; padding: 0px;&quot;&gt;Time since last block:&amp;nbsp;393&amp;nbsp;secs&lt;/li&gt;&lt;li style=&quot;box-sizing: border-box; margin: 0px; padding: 0px;&quot;&gt;Current Block Cycles Burned:&amp;nbsp;322&amp;nbsp;TC&lt;/li&gt;&lt;/ul&gt;" style="rounded=1;whiteSpace=wrap;html=1;" vertex="1" parent="92GGv_9mYleQxzDiKBSX-28">
          <mxGeometry x="35" y="200" width="975" height="320" as="geometry" />
        </mxCell>
        <mxCell id="92GGv_9mYleQxzDiKBSX-38" value="" style="dashed=0;outlineConnect=0;html=1;align=center;labelPosition=center;verticalLabelPosition=bottom;verticalAlign=top;shape=mxgraph.webicons.allvoices;fillColor=#807E7E;gradientColor=#1B1C1C" vertex="1" parent="92GGv_9mYleQxzDiKBSX-28">
          <mxGeometry x="620" y="740" width="50" height="50" as="geometry" />
        </mxCell>
        <mxCell id="92GGv_9mYleQxzDiKBSX-39" value="" style="dashed=0;outlineConnect=0;html=1;align=center;labelPosition=center;verticalLabelPosition=bottom;verticalAlign=top;shape=mxgraph.webicons.facebook;fillColor=#6294E4;gradientColor=#1A2665" vertex="1" parent="92GGv_9mYleQxzDiKBSX-28">
          <mxGeometry x="690" y="740" width="50" height="50" as="geometry" />
        </mxCell>
        <mxCell id="92GGv_9mYleQxzDiKBSX-40" value="" style="dashed=0;outlineConnect=0;html=1;align=center;labelPosition=center;verticalLabelPosition=bottom;verticalAlign=top;shape=mxgraph.webicons.google_plus;fillColor=#F24B46;gradientColor=#AD3832" vertex="1" parent="92GGv_9mYleQxzDiKBSX-28">
          <mxGeometry x="760" y="740" width="50" height="50" as="geometry" />
        </mxCell>
        <mxCell id="92GGv_9mYleQxzDiKBSX-41" value="" style="dashed=0;outlineConnect=0;html=1;align=center;labelPosition=center;verticalLabelPosition=bottom;verticalAlign=top;shape=mxgraph.webicons.twitter;fillColor=#49EAF7;gradientColor=#137BD0" vertex="1" parent="92GGv_9mYleQxzDiKBSX-28">
          <mxGeometry x="840" y="740" width="50" height="50" as="geometry" />
        </mxCell>
      </root>
    </mxGraphModel>
  </diagram>
</mxfile>
